HIERARCHY
ROOT Hips
{
	OFFSET 0.00 0.00 0.00
	CHANNELS 6 Xposition Yposition Zposition Yrotation Xrotation Zrotation
	JOINT LHipJoint
	{
		OFFSET	0.0000	0.0000	0.0000
		CHANNELS 3 Yrotation Xrotation Zrotation
		JOINT LeftUpLeg
		{
			OFFSET	1.0138	-0.0809	-0.0827
			CHANNELS 3 Yrotation Xrotation Zrotation
			JOINT LeftLeg
			{
				OFFSET	0.4110	-3.9095	0.3245
				CHANNELS 3 Yrotation Xrotation Zrotation
				JOINT LeftFoot
				{
					OFFSET	0.3810	-4.0555	-0.1470
					CHANNELS 3 Yrotation Xrotation Zrotation
					JOINT LeftToeBase
					{
						OFFSET	0.1396	-0.4462	1.3079
						CHANNELS 3 Yrotation Xrotation Zrotation
						End Site
						{
							OFFSET 0.0161 -0.0248 0.1809
						}
					}
				}
			}
		}
	}
	JOINT LowerBack
	{
		OFFSET	0.0000	0.7977	-0.3873
		CHANNELS 3 Yrotation Xrotation Zrotation
		JOINT Spine
		{
			OFFSET	0.0000	1.4131	0.1715
			CHANNELS 3 Yrotation Xrotation Zrotation
			JOINT Spine1
			{
				OFFSET	0.0000	1.4392	-0.1032
				CHANNELS 3 Yrotation Xrotation Zrotation
				JOINT LeftShoulder
				{
					OFFSET	0.2274	1.0382	0.4032
					CHANNELS 3 Yrotation Xrotation Zrotation
					JOINT LeftArm
					{
						OFFSET	1.4730	-0.2267	-0.0231
						CHANNELS 3 Yrotation Xrotation Zrotation
						JOINT LeftForeArm
						{
							OFFSET	1.6131	-1.8059	0.0081
							CHANNELS 3 Yrotation Xrotation Zrotation
							JOINT LeftHand
							{
								OFFSET	1.2197	-1.2423	1.6317
								CHANNELS 3 Yrotation Xrotation Zrotation
								JOINT LThumb
								{
									OFFSET	0.0109	-0.0753	0.4387
									CHANNELS 3 Yrotation Xrotation Zrotation
									End Site
									{
										OFFSET -0.2090 -0.0868 0.2097
									}
								}
								JOINT LeftFingerBase
								{
									OFFSET	0.1071	-0.1567	0.2607
									CHANNELS 3 Yrotation Xrotation Zrotation
									JOINT LeftHandFinger1
									{
										OFFSET	0.1706	-0.2492	0.6830
										CHANNELS 3 Yrotation Xrotation Zrotation
										End Site
										{
											OFFSET 0.0335 -0.1507 0.2071
										}
									}
								}
							}
						}
					}
				}
				JOINT Neck
				{
					OFFSET	0.0000	1.7498	0.2381
					CHANNELS 3 Yrotation Xrotation Zrotation
					JOINT Neck1
					{
						OFFSET	0.0000	0.5043	0.1959
						CHANNELS 3 Yrotation Xrotation Zrotation
						JOINT Head
						{
							OFFSET	0.0000	0.5044	0.1959
							CHANNELS 3 Yrotation Xrotation Zrotation
							End Site
							{
								OFFSET 0.0000 1.4798 -0.0693
							}
						}
					}
				}
				JOINT RightShoulder
				{
					OFFSET	-0.2274	1.0382	0.4032
					CHANNELS 3 Yrotation Xrotation Zrotation
					JOINT RightArm
					{
						OFFSET	-1.4730	-0.2267	-0.0231
						CHANNELS 3 Yrotation Xrotation Zrotation
						JOINT RightForeArm
						{
							OFFSET	-1.6131	-1.8059	0.0081
							CHANNELS 3 Yrotation Xrotation Zrotation
							JOINT RightHand
							{
								OFFSET	-1.2197	-1.2423	1.6317
								CHANNELS 3 Yrotation Xrotation Zrotation
								JOINT RThumb
								{
									OFFSET	-0.0109	-0.0753	0.4387
									CHANNELS 3 Yrotation Xrotation Zrotation
									End Site
									{
										OFFSET 0.2090 -0.0868 0.2097
									}
								}
								JOINT RightFingerBase
								{
									OFFSET	-0.1071	-0.1567	0.2607
									CHANNELS 3 Yrotation Xrotation Zrotation
									JOINT RightHandFinger1
									{
										OFFSET	-0.1706	-0.2492	0.6830
										CHANNELS 3 Yrotation Xrotation Zrotation
										End Site
										{
											OFFSET -0.0335 -0.1507 0.2071
										}
									}
								}
							}
						}
					}
				}
			}
		}
	}
	JOINT RHipJoint
	{
		OFFSET	0.0000	0.0000	0.0000
		CHANNELS 3 Yrotation Xrotation Zrotation
		JOINT RightUpLeg
		{
			OFFSET	-1.0138	-0.0809	-0.0827
			CHANNELS 3 Yrotation Xrotation Zrotation
			JOINT RightLeg
			{
				OFFSET	-0.4110	-3.9095	0.3245
				CHANNELS 3 Yrotation Xrotation Zrotation
				JOINT RightFoot
				{
					OFFSET	-0.3810	-4.0555	-0.1470
					CHANNELS 3 Yrotation Xrotation Zrotation
					JOINT RightToeBase
					{
						OFFSET	-0.1396	-0.4462	1.3079
						CHANNELS 3 Yrotation Xrotation Zrotation
						End Site
						{
							OFFSET -0.0161 -0.0248 0.1809
						}
					}
				}
			}
		}
	}
}
MOTION
Frames: 14
Frame Time: 0.0333333
-0.0784 8.9214 0.0865 9.6784 1.2321 -5.9347 0.0000 -0.0000 0.0000 -6.8712 -26.3137 -5.8218 25.5197 54.3362 28.2155 5.0740 17.2090 5.1220 -0.0000 0.0512 -0.0000 0.0000 -0.0000 0.0000 -0.1276 0.6573 1.5160 -0.2141 1.3120 1.2104 -5.3950 2.0083 -0.6997 -5.6893 -11.9389 -28.0906 12.7735 15.0430 -0.4110 -6.3718 -6.7903 22.3733 27.6439 -2.2731 12.3916 6.9446 10.0588 0.6015 3.1188 -15.6134 4.8413 -1.0114 -0.8565 0.8940 -1.0114 -0.8565 0.8940 -3.0836 -5.5936 0.1035 -5.1328 0.4221 1.5440 -22.0050 -11.3748 25.2083 -28.1252 28.8611 -5.1272 8.3338 2.0650 -64.9360 -27.9931 -2.6686 -12.2163 -6.9532 10.0488 -0.6086 -3.1188 -15.6135 -4.8413 0.0000 -0.0000 0.0000 -9.3716 -4.4091 16.8572 -10.1744 18.0757 -0.2306 -1.1350 8.1984 -15.3694 -0.0762 -19.1530 2.8887 
-0.0614 8.9489 0.0322 7.9553 1.0779 -4.5107 0.0000 -0.0000 0.0000 -6.4337 -27.3131 -7.4361 21.1855 48.6831 23.2494 4.4190 16.7413 4.7476 0.0000 -2.0240 0.0000 0.0000 -0.0000 0.0000 0.7239 0.7102 0.7307 1.4042 1.4429 -0.2205 -5.2688 1.9498 -0.6016 -0.1217 -9.4839 -28.0793 16.1242 18.3931 0.4903 -6.9553 -5.2217 24.4481 27.6439 -2.2730 12.3916 6.9446 10.0588 0.6015 3.1188 -15.6135 4.8413 -1.0760 -0.7419 0.5825 -1.0763 -0.7422 0.5825 -3.8809 -6.0512 0.9767 -4.7801 0.4645 1.2639 -18.2476 -15.0781 25.4017 -27.5063 28.3843 -4.8406 12.4757 0.1118 -65.7288 -27.9866 -2.7098 -12.2091 -6.9709 10.0284 -0.6231 -3.1188 -15.6135 -4.8413 0.0000 -0.0000 0.0000 -10.0469 -1.4777 15.2555 -7.2332 16.7171 0.4467 -0.8222 7.2697 -15.2067 -0.1152 -18.8473 3.2060 
-0.0336 8.9671 -0.0337 5.8112 0.7112 -2.7407 0.0000 -0.0000 0.0000 -4.9050 -26.5704 -9.4101 16.5750 40.0965 17.7786 3.7282 17.5133 4.4402 0.0186 -4.9325 -1.4176 0.0000 -0.0000 0.0000 1.6766 0.8297 -0.0468 3.2455 1.7199 -1.4516 -5.1976 1.9155 -0.5123 5.9736 -6.9801 -27.9248 18.6036 20.7604 1.2760 -7.0393 -3.1074 26.7413 27.6439 -2.2731 12.3916 6.9446 10.0588 0.6015 3.1188 -15.6135 4.8413 -1.1019 -0.6715 0.1238 -1.1018 -0.6713 0.1237 -4.7143 -6.6503 1.9415 -4.6873 0.4647 0.8968 -14.2563 -19.0169 25.0034 -26.2444 27.3904 -4.2707 17.2876 -2.1148 -66.6166 -27.9779 -2.7665 -12.1988 -6.9951 10.0002 -0.6431 -3.1188 -15.6135 -4.8413 0.0000 -0.0000 0.0000 -11.0075 0.9806 12.9428 -3.7988 16.2641 1.1364 -0.5502 6.1721 -15.0599 -0.1298 -18.8199 3.0301 
-0.0021 8.9764 -0.0694 3.3973 0.3699 -1.1044 0.0000 -0.0000 0.0000 -3.0898 -25.1601 -11.1581 12.8734 30.1684 13.2042 3.0345 18.8410 4.0582 0.0145 -2.7715 -0.7174 0.0000 -0.0000 0.0000 2.6714 0.9963 -0.8120 5.1931 2.0963 -2.5636 -5.1594 1.9007 -0.4301 12.0925 -4.4030 -27.5966 20.5491 22.5463 1.9594 -7.0759 -0.7220 28.9544 27.6439 -2.2730 12.3916 6.9446 10.0588 0.6015 3.1188 -15.6135 4.8413 -1.1038 -0.6233 -0.3938 -1.1037 -0.6232 -0.3939 -5.5369 -7.3019 3.0007 -4.6615 0.4484 0.4864 -10.3410 -22.8710 24.2948 -24.0764 25.6152 -3.3389 22.3215 -4.3791 -67.5030 -27.9687 -2.8266 -12.1878 -7.0208 9.9703 -0.6643 -3.1188 -15.6134 -4.8412 0.0000 -0.0000 0.0000 -12.1001 3.6938 10.4707 -3.1000 15.6530 0.9958 -0.0690 3.3552 -16.5959 -0.1111 -17.8192 3.4952 
0.0147 8.9564 -0.0873 0.9225 0.2347 0.1292 0.0000 -0.0000 0.0000 -1.7950 -24.7403 -12.2525 10.4221 22.0757 10.1115 2.2969 19.4867 3.0644 -0.0000 -0.1603 -0.0000 0.0000 -0.0000 0.0000 3.6367 1.1582 -1.5691 7.1012 2.4638 -3.6210 -5.1449 1.8906 -0.3547 17.7343 -1.7039 -27.1350 22.0378 23.8685 2.5202 -8.0489 1.5458 30.3853 27.6439 -2.2731 12.3916 6.9446 10.0588 0.6015 3.1188 -15.6134 4.8412 -1.0827 -0.5796 -0.8541 -1.0827 -0.5796 -0.8541 -6.2150 -7.8879 4.0824 -4.3957 0.4561 0.1008 -6.7216 -26.4903 23.6566 -21.3495 23.2620 -2.2570 26.7354 -6.3783 -67.9339 -27.9629 -2.8662 -12.1800 -7.0378 9.9506 -0.6783 -3.1188 -15.6134 -4.8412 0.0000 -0.0000 0.0000 -13.2279 5.4421 8.2878 -0.4469 16.4199 1.3111 0.2758 1.6762 -16.8723 -0.1049 -16.6475 3.4029 
0.0366 8.9270 -0.0835 -1.5185 0.3377 1.0695 0.0000 -0.0000 0.0000 -0.7057 -23.8432 -12.9293 7.7383 13.1739 7.4308 1.6891 20.7929 1.9171 0.0000 -0.2082 0.0000 0.0000 -0.0000 0.0000 4.4934 1.3234 -2.3760 8.8096 2.8313 -4.6951 -5.1418 1.8853 -0.2899 22.6953 1.1403 -26.5204 23.0487 24.7440 2.9190 -9.7668 3.1602 30.9227 27.6439 -2.2731 12.3916 6.9446 10.0588 0.6015 3.1188 -15.6135 4.8413 -1.0536 -0.5468 -1.2026 -1.0536 -0.5468 -1.2025 -6.7310 -8.4097 5.1461 -3.8966 0.4951 -0.2277 -3.4051 -29.8559 23.1990 -18.2325 20.4125 -1.1523 30.0857 -8.0810 -67.8510 -27.9625 -2.8719 -12.1782 -7.0402 9.9477 -0.6804 -3.1188 -15.6134 -4.8412 0.0000 -0.0000 0.0000 -14.2159 7.2466 6.2269 2.2616 16.7284 1.5522 0.5397 0.3857 -16.9569 -0.1171 -15.6400 3.5987 
0.0561 8.8477 -0.0794 -3.7191 0.6656 1.8045 0.0000 -0.0000 0.0000 0.0809 -23.4488 -13.1565 3.8310 7.2754 5.1372 1.4689 21.9762 0.2871 -0.0000 -0.2584 -0.0000 0.0000 -0.0000 0.0000 5.1847 1.4833 -3.1315 10.1864 3.1964 -5.8079 -5.1441 1.8826 -0.2398 26.8756 4.0353 -25.7431 23.6005 25.2141 3.1427 -11.7045 3.6834 30.7310 27.6439 -2.2731 12.3916 6.9446 10.0588 0.6015 3.1188 -15.6135 4.8413 -1.0293 -0.5208 -1.4010 -1.0294 -0.5209 -1.4009 -7.0807 -8.8427 6.1422 -3.1724 0.5687 -0.4738 -0.4079 -32.9588 23.0303 -14.8713 17.1597 -0.1312 32.2162 -9.5314 -67.2968 -27.9680 -2.8395 -12.1830 -7.0265 9.9638 -0.6690 -3.1188 -15.6134 -4.8412 0.0000 -0.0000 0.0000 -14.5771 8.0304 4.6111 3.9531 18.7582 1.2950 1.0493 -2.1871 -16.9322 -0.1196 -16.6472 3.6110 
0.0745 8.7649 -0.0698 -5.4354 1.1321 2.5233 0.0000 -0.0000 0.0000 0.3957 -22.3764 -13.2621 2.6533 1.1976 3.8066 1.6902 24.5286 0.7423 -0.0000 -0.3105 0.0000 0.0000 -0.0000 0.0000 5.6816 1.6206 -3.8220 11.1602 3.5209 -6.9039 -5.1469 1.8802 -0.2086 30.2964 6.7793 -24.8108 23.8199 25.3996 3.2328 -12.9660 2.9891 30.3107 27.6439 -2.2730 12.3916 6.9446 10.0588 0.6015 3.1188 -15.6135 4.8413 -1.0248 -0.4913 -1.4418 -1.0248 -0.4912 -1.4418 -7.3019 -9.1549 7.0289 -2.2913 0.6694 -0.6301 2.1909 -35.6861 23.2337 -11.3849 13.6089 0.7278 33.3492 -10.8295 -66.4734 -27.9779 -2.7786 -12.1933 -7.0004 9.9940 -0.6475 -3.1188 -15.6135 -4.8413 0.0000 -0.0000 0.0000 -14.9576 8.9094 3.0532 5.2649 20.4175 0.8492 1.3927 -3.9665 -16.8140 -0.1310 -18.4315 3.7318 
0.0910 8.7156 -0.0618 -6.4090 1.5807 3.3969 0.0000 -0.0000 0.0000 0.6782 -22.8948 -13.7931 5.2480 0.4046 3.2303 1.9212 28.2021 0.8552 0.0000 -0.3640 -0.0000 0.0000 -0.0000 0.0000 5.9567 1.7578 -4.3756 11.6679 3.8800 -8.0961 -5.1489 1.8769 -0.2014 33.0327 9.1042 -23.7640 23.8545 25.4287 3.2470 -12.6775 1.3404 30.2349 27.6439 -2.2731 12.3916 6.9446 10.0588 0.6015 3.1188 -15.6135 4.8413 -1.0501 -0.4456 -1.3515 -1.0502 -0.4456 -1.3514 -7.4562 -9.3085 7.7695 -1.3638 0.7815 -0.7071 4.2516 -37.7574 23.8737 -7.8693 9.8758 1.3746 33.9249 -12.0539 -65.5579 -27.9889 -2.7091 -12.2054 -6.9707 10.0285 -0.6230 -3.1188 -15.6134 -4.8413 0.0000 -0.0000 0.0000 -15.2376 10.8644 1.5474 5.8082 19.8543 -0.1657 1.3242 -3.7892 -16.3282 -0.1666 -20.6760 4.1042 
0.1085 8.6854 -0.0737 -6.6128 1.7998 4.4544 0.0000 -0.0000 0.0000 0.5887 -24.9628 -15.0091 8.9646 5.0221 4.2711 2.0464 32.2026 0.3709 0.0000 -0.4719 0.0000 0.0000 -0.0000 0.0000 6.0494 1.8775 -4.7533 11.7695 4.2360 -9.3159 -5.1545 1.8731 -0.2242 35.1331 10.7605 -22.6701 23.7835 25.3689 3.2178 -10.4219 -0.7989 30.7481 27.6439 -2.2731 12.3916 6.9446 10.0588 0.6015 3.1188 -15.6135 4.8413 -1.1043 -0.3794 -1.1812 -1.1043 -0.3794 -1.1812 -7.5909 -9.2742 8.3273 -0.5071 0.8879 -0.7247 5.6543 -38.8154 24.9763 -4.4031 6.0832 1.7864 34.2528 -13.1309 -64.4483 -27.9976 -2.6534 -12.2155 -6.9469 10.0562 -0.6033 -3.1188 -15.6135 -4.8413 0.0000 -0.0000 0.0000 -15.3146 13.7416 0.2685 5.7067 17.6525 -1.7651 1.0280 -2.4193 -15.6929 -0.2404 -21.8245 4.8189 
0.1166 8.6529 -0.0550 -6.2360 1.6111 5.7551 0.0000 -0.0000 0.0000 0.5193 -26.9609 -16.7372 10.6180 12.1109 5.7065 1.6815 30.6908 -0.8009 -0.0795 -6.4501 3.0163 0.0000 -0.0000 0.0000 5.9930 1.9721 -5.0750 11.5805 4.5325 -10.4874 -5.1700 1.8707 -0.2830 36.5795 11.6098 -21.5921 23.6048 25.2178 3.1444 -6.3692 -3.0492 31.5649 27.6439 -2.2730 12.3916 6.9446 10.0588 0.6015 3.1188 -15.6134 4.8412 -1.1719 -0.3021 -0.9827 -1.1719 -0.3021 -0.9827 -7.7028 -9.0506 8.6675 0.2024 0.9785 -0.7003 6.4172 -38.6595 26.4816 -1.0563 2.3571 1.9647 34.2296 -13.7931 -62.6973 -28.0020 -2.6244 -12.2210 -6.9344 10.0706 -0.5930 -3.1188 -15.6135 -4.8413 0.0000 -0.0000 0.0000 -15.9965 17.7352 -1.4207 6.0126 14.5813 -3.1175 0.5515 0.0382 -15.1330 -0.2393 -22.3140 4.9207 
0.1094 8.6568 -0.0079 -5.6228 0.9767 7.2895 0.0000 -0.0000 0.0000 0.8074 -26.2531 -18.4116 11.5303 16.3769 5.7947 1.6333 27.4869 -0.2520 -0.0872 -9.1056 3.1461 0.0000 -0.0000 0.0000 5.8169 2.0474 -5.4632 11.2087 4.7508 -11.5847 -5.2019 1.8723 -0.3815 37.3191 11.6274 -20.5722 23.3032 24.9615 3.0217 -1.1604 -5.0235 32.0214 27.6439 -2.2731 12.3916 6.9446 10.0588 0.6015 3.1188 -15.6135 4.8413 -1.2259 -0.2366 -0.7924 -1.2258 -0.2366 -0.7924 -7.7276 -8.6756 8.7606 0.7368 1.0516 -0.6439 6.7188 -37.3858 28.2273 2.1012 -1.1764 1.9326 33.4431 -13.5827 -59.6662 -28.0022 -2.6217 -12.2217 -6.9333 10.0719 -0.5921 -3.1188 -15.6134 -4.8413 0.0000 -0.0000 0.0000 -16.2520 22.2957 -2.8140 4.4434 10.7735 -5.0906 -0.4274 5.4059 -14.5899 -0.1844 -24.6430 4.4874 
0.1057 8.6493 0.0246 -5.1162 0.0334 8.9858 0.0000 -0.0000 0.0000 1.4467 -24.7413 -20.4687 11.8528 19.8850 5.9364 1.4491 24.4646 -0.4084 -0.2100 -14.5815 1.5288 0.0000 -0.0000 0.0000 5.5748 2.0844 -6.0442 10.6932 4.8145 -12.5114 -5.2533 1.8795 -0.5193 37.3311 10.8800 -19.6309 22.9287 24.6410 2.8710 4.2453 -6.1986 31.5365 27.6439 -2.2730 12.3916 6.9446 10.0588 0.6015 3.1188 -15.6135 4.8413 -1.2349 -0.2079 -0.6199 -1.2349 -0.2079 -0.6199 -7.5579 -8.2246 8.5953 1.1086 1.1121 -0.5592 6.7989 -35.3616 30.0224 4.9925 -4.3951 1.7330 31.7031 -11.9005 -54.9629 -28.0002 -2.6345 -12.2195 -6.9388 10.0656 -0.5966 -3.1188 -15.6134 -4.8412 0.0000 -0.0000 0.0000 -13.8258 18.4607 -2.6439 -1.8672 20.5606 -7.4930 -1.1018 8.9999 -15.5165 -0.0876 -28.3549 3.3232 
0.1098 8.6395 0.0308 -4.9821 -0.9262 10.6352 0.0000 -0.0000 0.0000 2.0450 -22.7771 -22.6535 12.1951 22.9198 6.3984 1.3272 20.8516 -0.0863 -0.2361 -17.5985 1.1327 0.0000 -0.0000 0.0000 5.3068 2.0895 -6.6926 10.0646 4.7786 -13.3357 -5.3242 1.8930 -0.6914 36.6664 9.4660 -18.7811 22.6012 24.3586 2.7407 8.8513 -6.0889 30.0737 27.6439 -2.2731 12.3916 6.9446 10.0588 0.6015 3.1188 -15.6135 4.8413 -1.1767 -0.2265 -0.4524 -1.1767 -0.2265 -0.4524 -7.0971 -7.7788 8.1840 1.3344 1.1640 -0.4469 6.8310 -32.9779 31.7391 7.5286 -7.1822 1.4259 29.5882 -8.2407 -48.8467 -27.9979 -2.6495 -12.2168 -6.9452 10.0581 -0.6019 -3.1188 -15.6134 -4.8412 0.0000 -0.0000 0.0000 -11.0552 12.7875 -2.4694 -8.5818 31.8337 -11.5848 -2.4514 16.1706 -15.3904 -0.0307 -30.1095 1.6063 
